Coordinates
version=1
nRows=16
nColumns=32
inDegrees=no

Units are S.I. units (second, meters, Newtons, ...)
If the header above contains a line with 'inDegrees', this indicates whether rotational values are in degrees (yes) or radians (no).

endheader
time	pelvis_tilt	pelvis_list	pelvis_rotation	pelvis_tx	pelvis_ty	pelvis_tz	hip_flexion_r	hip_adduction_r	hip_rotation_r	knee_angle_r	ankle_angle_r	subtalar_angle_r	mtp_angle_r	hip_flexion_l	hip_adduction_l	hip_rotation_l	knee_angle_l	ankle_angle_l	subtalar_angle_l	mtp_angle_l	lumbar_extension	lumbar_bending	lumbar_rotation	arm_flex_r	arm_add_r	arm_rot_r	elbow_flex_r	arm_flex_l	arm_add_l	arm_rot_l	elbow_flex_l
0	-0.653772	-0.0397032	0.105629	0.455643	0.758501	1.23828	0.520199	-0.0575806	-0.0246956	1.53652	-0.321307	-0.281244	-0.000812905	0.449177	-0.202113	0.0305641	1.49262	-0.107561	-0.052008	0.000302342	0.681007	-0.0624707	0.00629283	-0.74099	-1.29697	-1.58088	1.96292	-0.164653	-1.59071	-1.16799	2.09503
0.005	-0.652616	-0.039216	0.106206	0.454763	0.758494	1.23826	0.52076	-0.0587547	-0.0253271	1.53849	-0.299937	-0.24063	-0.000811691	0.448953	-0.201484	0.0320748	1.49289	-0.110611	-0.0469374	0.000302839	0.673727	-0.0617167	-0.00206412	-0.73061	-1.30235	-1.58089	1.96481	0.246023	-1.57915	-0.778406	2.08006
0.01	-0.651826	-0.0388884	0.106709	0.454009	0.758447	1.23823	0.521082	-0.0597042	-0.0259318	1.54001	-0.282791	-0.207888	-0.000810477	0.448711	-0.200977	0.0334025	1.4931	-0.113192	-0.0429039	0.000303335	0.667726	-0.0611251	-0.00901646	-0.721267	-1.30672	-1.58091	1.96622	0.5462	-1.5709	-0.501447	2.06846
0.015	-0.651401	-0.0387152	0.10713	0.453427	0.758354	1.2382	0.521177	-0.0604238	-0.0264913	1.54106	-0.270003	-0.183266	-0.000809264	0.448455	-0.200593	0.0345302	1.49323	-0.115279	-0.0399335	0.000303832	0.663034	-0.0606939	-0.0145484	-0.713075	-1.31008	-1.58092	1.96717	0.738863	-1.56588	-0.333618	2.06017
0.02	-0.651326	-0.0386721	0.107443	0.453044	0.758234	1.23817	0.521082	-0.0609012	-0.0269414	1.54162	-0.261898	-0.167388	-0.00080805	0.448204	-0.200326	0.0354029	1.49327	-0.116805	-0.0380877	0.000304329	0.659697	-0.0604053	-0.0186753	-0.706373	-1.31246	-1.58094	1.96776	0.840167	-1.56356	-0.257029	2.05484
0.025	-0.651575	-0.0387164	0.107595	0.452868	0.758104	1.23816	0.52087	-0.0611198	-0.0271736	1.54166	-0.258866	-0.161013	-0.000806836	0.447984	-0.200169	0.0359288	1.49318	-0.117671	-0.0374328	0.000304825	0.657773	-0.0602211	-0.0214624	-0.701684	-1.314	-1.58095	1.96815	0.880018	-1.56307	-0.239261	2.05177
0.03	-0.652124	-0.038799	0.107523	0.452893	0.757978	1.23816	0.520634	-0.0610684	-0.0270731	1.54117	-0.260999	-0.164366	-0.000805622	0.447823	-0.200113	0.0360137	1.49292	-0.117808	-0.0379631	0.000305322	0.657291	-0.0600855	-0.0230429	-0.699475	-1.31487	-1.58096	1.96854	0.894979	-1.56335	-0.241542	2.05009
0.035	-0.652915	-0.0388812	0.107201	0.45309	0.757864	1.23817	0.520448	-0.0607666	-0.0265938	1.54021	-0.267679	-0.176344	-0.000804409	0.447735	-0.200145	0.0356315	1.49246	-0.117258	-0.0395137	0.000305819	0.65812	-0.0599488	-0.0236239	-0.699863	-1.31528	-1.58098	1.96906	0.914516	-1.56352	-0.233125	2.04904
0.04	-0.653861	-0.0389487	0.106678	0.453412	0.757766	1.23819	0.520365	-0.060283	-0.0258065	1.53894	-0.277405	-0.194135	-0.000803195	0.447734	-0.200239	0.0348809	1.49185	-0.11623	-0.0417254	0.000306316	0.659941	-0.0597802	-0.0234947	-0.702377	-1.31544	-1.58099	1.96971	0.956662	-1.56312	-0.195769	2.04817
0.045	-0.654842	-0.0390024	0.106055	0.453796	0.757688	1.23821	0.520401	-0.0597161	-0.0248662	1.53756	-0.288114	-0.21388	-0.00080198	0.447819	-0.200369	0.033937	1.49116	-0.115029	-0.0441212	0.000306813	0.662297	-0.0595784	-0.0229474	-0.706262	-1.31548	-1.58101	1.97042	1.02449	-1.56205	-0.127126	2.04728
0.05	-0.655758	-0.0390467	0.105444	0.454184	0.757628	1.23822	0.520553	-0.059166	-0.0239442	1.53631	-0.297816	-0.231853	-0.000800766	0.44798	-0.200507	0.0329835	1.49046	-0.113961	-0.0462493	0.000307311	0.664742	-0.0593648	-0.0222216	-0.710803	-1.31545	-1.58102	1.97109	1.11257	-1.56039	-0.0339244	2.04633
0.055	-0.656528	-0.0390856	0.104946	0.454528	0.757582	1.23822	0.520795	-0.0587207	-0.0232003	1.53535	-0.304859	-0.244993	-0.000799552	0.448196	-0.200632	0.0321849	1.48984	-0.113263	-0.0477328	0.000307808	0.666883	-0.0591809	-0.0214875	-0.71539	-1.31532	-1.58104	1.97164	1.20795	-1.55834	0.069135	2.04542
0.06	-0.657068	-0.0391251	0.10466	0.454791	0.757548	1.23822	0.521057	-0.0584479	-0.0227761	1.53481	-0.308125	-0.25127	-0.000798338	0.448422	-0.200728	0.0316778	1.48937	-0.113068	-0.0483109	0.000308305	0.668341	-0.0590854	-0.0208497	-0.719421	-1.31497	-1.58105	1.97199	1.28629	-1.55636	0.155636	2.04477
0.065	-0.657325	-0.0391765	0.104647	0.454953	0.757524	1.2382	0.521258	-0.0583812	-0.0227619	1.53478	-0.307139	-0.249845	-0.000797124	0.448607	-0.200788	0.031548	1.48911	-0.113406	-0.0478658	0.000308802	0.668865	-0.0591202	-0.0203815	-0.722301	-1.31431	-1.58106	1.97209	1.32201	-1.55496	0.197929	2.04464
0.07	-0.65729	-0.0392546	0.104916	0.455014	0.757507	1.23818	0.521329	-0.0585141	-0.0231796	1.53521	-0.302125	-0.241131	-0.00079591	0.448708	-0.200817	0.0318149	1.4891	-0.11421	-0.0464424	0.000309299	0.668375	-0.0592937	-0.0201359	-0.723514	-1.31333	-1.58108	1.97191	1.29542	-1.55464	0.17462	2.04525
0.075	-0.657004	-0.0393712	0.105428	0.45499	0.757492	1.23816	0.521226	-0.0588046	-0.0239792	1.53601	-0.293999	-0.226788	-0.000794696	0.448699	-0.200826	0.0324238	1.48932	-0.11534	-0.0442557	0.000309796	0.666962	-0.0595845	-0.0201264	-0.722791	-1.31209	-1.58109	1.97146	1.19779	-1.5557	0.0759141	2.04669
